HIERARCHY
ROOT Hips
{
 OFFSET 0.000000 0.000000 0.000000
 CHANNELS 6 Xposition Yposition Zposition Yrotation Xrotation Zrotation
 JOINT Chest
 {
  OFFSET 0.000000 9.585900 0.002600
  CHANNELS 3 Yrotation Xrotation Zrotation
  JOINT Chest2
  {
   OFFSET 0.000000 9.601200 -0.005300
   CHANNELS 3 Yrotation Xrotation Zrotation
   JOINT Chest3
   {
    OFFSET 0.000000 9.561800 0.000000
    CHANNELS 3 Yrotation Xrotation Zrotation
    JOINT Chest4
    {
     OFFSET 0.000000 9.552100 0.000000
     CHANNELS 3 Yrotation Xrotation Zrotation
     JOINT Neck
     {
      OFFSET 0.000000 14.453000 0.000000
      CHANNELS 3 Yrotation Xrotation Zrotation
      JOINT Head
      {
       OFFSET 0.000000 8.936500 -0.011300
       CHANNELS 3 Yrotation Xrotation Zrotation
       End Site
       {
        OFFSET 0.000000 17.073600 -0.006000
       }
      }
     }
     JOINT RightCollar
     {
      OFFSET -2.921100 9.558500 0.000000
      CHANNELS 3 Yrotation Xrotation Zrotation
      JOINT RightShoulder
      {
       OFFSET -13.519700 0.000000 0.000000
       CHANNELS 3 Yrotation Xrotation Zrotation
       JOINT RightElbow
       {
        OFFSET 0.000000 -29.696600 0.000000
        CHANNELS 3 Yrotation Xrotation Zrotation
        JOINT RightWrist
        {
         OFFSET 0.000000 -24.004700 0.000000
         CHANNELS 3 Yrotation Xrotation Zrotation
         End Site
         {
          OFFSET 0.000000 -17.728500 0.000000
         }
        }
       }
      }
     }
     JOINT LeftCollar
     {
      OFFSET 2.921100 9.558500 0.000000
      CHANNELS 3 Yrotation Xrotation Zrotation
      JOINT LeftShoulder
      {
       OFFSET 13.519700 0.000000 0.000000
       CHANNELS 3 Yrotation Xrotation Zrotation
       JOINT LeftElbow
       {
        OFFSET 0.000000 -29.696600 0.000000
        CHANNELS 3 Yrotation Xrotation Zrotation
        JOINT LeftWrist
        {
         OFFSET 0.000000 -24.004700 0.000000
         CHANNELS 3 Yrotation Xrotation Zrotation
         End Site
         {
          OFFSET 0.000000 -17.728500 0.000000
         }
        }
       }
      }
     }
    }
   }
  }
 }
 JOINT RightHip
 {
  OFFSET -7.771700 -0.012900 -0.001300
  CHANNELS 3 Yrotation Xrotation Zrotation
  JOINT RightKnee
  {
   OFFSET 0.000000 -40.869800 0.001200
   CHANNELS 3 Yrotation Xrotation Zrotation
   JOINT RightAnkle
   {
    OFFSET 0.000000 -39.717900 0.002100
    CHANNELS 3 Yrotation Xrotation Zrotation
    JOINT RightToe
    {
     OFFSET 0.000000 -4.965400 11.033500
     CHANNELS 3 Yrotation Xrotation Zrotation
     End Site
     {
      OFFSET 0.000000 -1.423100 5.872300
     }
    }
   }
  }
 }
 JOINT LeftHip
 {
  OFFSET 7.771700 -0.012900 -0.001300
  CHANNELS 3 Yrotation Xrotation Zrotation
  JOINT LeftKnee
  {
   OFFSET 0.000000 -40.869800 0.001200
   CHANNELS 3 Yrotation Xrotation Zrotation
   JOINT LeftAnkle
   {
    OFFSET 0.000000 -39.717900 0.002100
    CHANNELS 3 Yrotation Xrotation Zrotation
    JOINT LeftToe
    {
     OFFSET 0.000000 -4.965400 11.033500
     CHANNELS 3 Yrotation Xrotation Zrotation
     End Site
     {
      OFFSET 0.000000 -1.423100 5.872300
     }
    }
   }
  }
 }
}
MOTION
Frames: 8
Frame Time: 0.008333
0.000000 85.388000 0.000000 0.000000 -5.767877 0.000000 0.000000 11.653817 0.000000 0.000000 -5.885947 0.000000 0.000000 -0.000000 0.000000 0.000000 -0.000000 0.000000 0.000000 12.528835 0.000000 0.000000 0.711642 0.000000 0.000000 -0.000000 0.000000 0.000000 0.000000 -90.000000 0.000000 -2.309062 0.000000 0.000000 2.309062 0.000000 0.000000 -0.000000 0.000000 0.000000 -0.000000 90.000000 0.000000 -2.309062 0.000000 0.000000 2.309062 0.000000 0.000000 8.520406 0.000000 0.000000 1.905762 0.000000 -0.000000 -4.658285 0.000000 0.000000 -0.000000 0.000000 0.000000 8.520406 0.000000 0.000000 1.905762 0.000000 -0.000000 -4.658285 0.000000 0.000000 -0.000000 0.000000
4.711664 52.119538 37.912590 169.530971 -37.489483 -1.620099 4.417672 23.929509 1.820533 0.554132 3.731371 0.371435 0.922183 5.930838 0.613064 3.488363 19.928424 2.541328 0.019446 13.776529 0.062691 0.029205 -10.277940 0.106541 -3.645678 -1.797140 -3.521371 -2.329778 -12.275858 2.632087 -92.031723 -38.683145 118.266306 -6.700080 5.302414 37.561045 -6.254498 0.879095 -0.051494 14.274159 -14.382945 0.684139 75.513630 -22.517887 -118.610494 20.579761 -2.856202 -17.525274 -4.524928 -43.905118 4.773400 134.894349 84.606081 138.890440 -4.479078 -10.902187 -3.499282 0.605319 -0.991017 0.257872 1.762778 -40.323713 6.375994 74.073123 83.328997 64.336754 -5.711879 -13.078768 9.657550 0.353249 1.575854 0.183101
4.712696 52.118629 37.910266 169.515978 -37.471712 -1.602516 4.412255 23.948889 1.804779 0.558201 3.727503 0.372082 0.918761 5.952055 0.612003 3.490491 19.911062 2.532358 0.035749 13.848858 0.055535 0.079906 -10.206903 0.078617 -3.640060 -1.802104 -3.514229 -2.261226 -12.360074 2.689297 -91.846514 -38.738549 117.810757 -7.030150 5.095149 36.565389 -6.281604 0.960826 -0.026275 14.243474 -14.455288 0.556955 75.739603 -22.356121 -118.071782 20.719931 -3.611942 -16.689532 -4.512631 -43.926354 4.760936 134.855701 84.592034 138.862797 -4.490743 -10.913070 -3.513426 0.614279 -0.989745 0.261299 1.800602 -40.337853 6.363508 74.105462 83.322266 64.373980 -5.740432 -13.084104 9.655183 0.364425 1.576150 0.191083
4.714574 52.118594 37.906008 169.504077 -37.462551 -1.587656 4.407189 23.976091 1.794810 0.566049 3.702660 0.368933 0.909937 5.992423 0.612899 3.484426 19.932515 2.521997 0.056759 13.830049 0.050214 0.135307 -10.091297 0.041186 -3.620798 -1.765440 -3.483204 -2.234434 -12.491819 2.694492 -91.661100 -38.791860 117.385510 -7.368552 4.857985 35.558807 -6.291649 0.988141 -0.002155 14.189216 -14.490626 0.440944 76.039847 -22.285410 -117.543103 20.782415 -4.173814 -16.012707 -4.520861 -43.940717 4.752156 134.789526 84.567215 138.802553 -4.494321 -10.908728 -3.535012 0.610260 -1.006179 0.262810 1.845525 -40.343891 6.351417 74.136790 83.323620 64.413803 -5.768878 -13.088812 9.656228 0.382401 1.572751 0.200208
4.716792 52.117677 37.902001 169.503636 -37.445574 -1.580204 4.392081 23.993817 1.783654 0.565508 3.709411 0.368016 0.915906 5.976944 0.610299 3.462855 20.020381 2.520344 0.087310 13.769148 0.035778 0.192701 -9.987834 -0.000896 -3.585765 -1.802930 -3.465661 -2.213163 -12.585069 2.704825 -91.484280 -38.874467 116.952083 -7.709934 4.596402 34.579801 -6.288021 0.978109 0.020393 14.156212 -14.517761 0.334150 76.364851 -22.277855 -117.031654 20.796274 -4.563715 -15.403968 -4.519224 -43.959552 4.741602 134.757183 84.551465 138.783775 -4.508456 -10.918702 -3.552892 0.626772 -1.013624 0.271717 1.858313 -40.358710 6.343476 74.204068 83.317456 64.474885 -5.768059 -13.092980 9.660998 0.377813 1.564924 0.191797
4.719431 52.116859 37.896858 169.504208 -37.431766 -1.572891 4.369167 24.046812 1.771430 0.567776 3.712745 0.366317 0.919719 5.968597 0.608592 3.457199 20.038124 2.515137 0.121433 13.851012 0.011509 0.235938 -10.010486 -0.033315 -3.569820 -1.822066 -3.457077 -2.096418 -12.677353 2.771952 -91.387895 -39.044687 116.481541 -8.040706 4.318700 33.668760 -6.297145 1.005580 0.043258 14.144771 -14.526438 0.228772 76.695497 -22.321943 -116.556525 20.775543 -4.815355 -14.804764 -4.533833 -43.974699 4.736991 134.712658 84.530341 138.744618 -4.518642 -10.929232 -3.571968 0.634674 -1.018981 0.274863 1.869359 -40.371150 6.333953 74.293970 83.310488 64.562703 -5.772122 -13.096430 9.657806 0.374932 1.557293 0.192146
4.721850 52.114607 37.892366 169.504115 -37.407013 -1.562872 4.352128 24.055070 1.757764 0.576436 3.690767 0.362980 0.907315 6.017073 0.612632 3.451612 20.039580 2.507453 0.150954 13.892380 -0.008088 0.287531 -9.996330 -0.074159 -3.562926 -1.822856 -3.454196 -1.990520 -12.746346 2.814057 -91.277009 -39.182780 115.997598 -8.344244 4.036671 32.861673 -6.308192 1.053967 0.063270 14.166151 -14.519848 0.138431 76.999558 -22.383558 -116.126061 20.727552 -4.964361 -14.214811 -4.586841 -43.999376 4.758341 134.729852 84.511662 138.733262 -4.511308 -10.940095 -3.583242 0.626688 -1.020927 0.272661 1.886275 -40.392745 6.323030 74.340964 83.303814 64.608799 -5.791855 -13.102238 9.655103 0.385035 1.557263 0.195800
4.725296 52.112566 37.886499 169.494167 -37.388056 -1.549617 4.349270 24.052487 1.747747 0.572187 3.711990 0.364862 0.901637 6.024849 0.609116 3.454666 20.024107 2.501345 0.164610 13.900218 -0.017001 0.316749 -9.981672 -0.096221 -3.568886 -1.792453 -3.453413 -1.889648 -12.810107 2.849339 -91.131185 -39.294431 115.467926 -8.605734 3.764060 32.179555 -6.326749 1.132577 0.079288 14.219101 -14.500565 0.072386 77.265631 -22.442678 -115.742334 20.658795 -5.041575 -13.669524 -4.609851 -44.019064 4.767431 134.744764 84.495513 138.737234 -4.506442 -10.954306 -3.588557 0.619078 -1.020090 0.265398 1.903139 -40.403973 6.322346 74.384863 83.299151 64.648117 -5.825444 -13.119882 9.655337 0.403706 1.567979 0.198316
